<svg width="315" height="315" viewBox="0 0 315 315" fill="none" xmlns="http://www.w3.org/2000/svg">
<circle cx="157.5" cy="157.5" r="154.5" fill="white" stroke="#11B5EC" stroke-width="6"/>
<path d="M84 220.43V93.6722C84 91.0251 84.9515 88.7513 86.8544 86.8508C88.7573 84.9503 91.1019 84 93.8883 84H112.85C115.5 84 117.743 84.9503 119.578 86.8508C121.481 88.7513 122.432 91.0251 122.432 93.6722V139.488H192.568V93.6722C192.568 91.0251 193.519 88.7513 195.422 86.8508C197.325 84.9503 199.602 84 202.252 84H221.214C224 84 226.311 84.9503 228.146 86.8508C230.049 88.7513 231 91.0251 231 93.6722V220.43C231 223.077 230.015 225.351 228.044 227.251C226.141 229.084 223.864 230 221.214 230H202.252C199.602 230 197.325 229.118 195.422 227.353C193.519 225.52 192.568 223.28 192.568 220.633V168.301H122.432V220.633C122.432 223.28 121.481 225.52 119.578 227.353C117.743 229.118 115.5 230 112.85 230H93.8883C91.2379 230 88.9272 229.084 86.9563 227.251C84.9854 225.351 84 223.077 84 220.43Z" fill="url(#paint0_linear_17_43)"/>
<defs>
<linearGradient id="paint0_linear_17_43" x1="158.152" y1="21.4867" x2="158.152" y2="285.604" gradientUnits="userSpaceOnUse">
<stop stop-color="#18CDEA"/>
<stop offset="1" stop-color="#0075F2"/>
</linearGradient>
</defs>
</svg>
