<svg width="35" height="35" viewBox="0 0 35 35" fill="none" xmlns="http://www.w3.org/2000/svg">
<path fill-rule="evenodd" clip-rule="evenodd" d="M17.9667 0.970459C8.57783 0.970459 0.966675 8.58162 0.966675 17.9705C0.966675 27.3593 8.57783 34.9705 17.9667 34.9705C27.3555 34.9705 34.9667 27.3593 34.9667 17.9705C34.9667 8.58162 27.3555 0.970459 17.9667 0.970459ZM14.229 8.95857C15.1961 8.91456 15.5051 8.90379 17.9675 8.90379H17.9647C20.4278 8.90379 20.7357 8.91456 21.7028 8.95857C22.6681 9.00277 23.3273 9.15558 23.9053 9.3798C24.5022 9.61119 25.0065 9.92097 25.5109 10.4253C26.0152 10.9293 26.325 11.4351 26.5573 12.0314C26.7802 12.6079 26.9332 13.2668 26.9786 14.232C27.022 15.1991 27.0333 15.5082 27.0333 17.9706C27.0333 20.4329 27.022 20.7412 26.9786 21.7083C26.9332 22.6732 26.7802 23.3322 26.5573 23.9089C26.325 24.505 26.0152 25.0109 25.5109 25.5149C25.0071 26.0192 24.502 26.3297 23.9059 26.5613C23.329 26.7855 22.6694 26.9383 21.7042 26.9825C20.737 27.0265 20.429 27.0373 17.9664 27.0373C15.5042 27.0373 15.1954 27.0265 14.2282 26.9825C13.2632 26.9383 12.6042 26.7855 12.0273 26.5613C11.4313 26.3297 10.9255 26.0192 10.4217 25.5149C9.91756 25.0109 9.60778 24.505 9.37601 23.9087C9.15199 23.3322 8.99918 22.6734 8.95479 21.7081C8.91096 20.741 8.90001 20.4329 8.90001 17.9706C8.90001 15.5082 8.91134 15.199 8.9546 14.2318C8.99804 13.267 9.15104 12.6079 9.37582 12.0313C9.60816 11.4351 9.91794 10.9293 10.4223 10.4253C10.9262 9.92116 11.4321 9.61138 12.0284 9.3798C12.6049 9.15558 13.2638 9.00277 14.229 8.95857Z" fill="white"/>
<path fill-rule="evenodd" clip-rule="evenodd" d="M17.1542 10.5377C17.3121 10.5374 17.482 10.5375 17.6653 10.5376L17.9675 10.5377C20.3883 10.5377 20.6753 10.5464 21.6313 10.5898C22.5153 10.6302 22.995 10.7779 23.3146 10.902C23.7378 11.0664 24.0394 11.2628 24.3566 11.5802C24.6739 11.8975 24.8704 12.1997 25.0351 12.6228C25.1592 12.9421 25.3071 13.4218 25.3473 14.3059C25.3907 15.2616 25.4002 15.5488 25.4002 17.9684C25.4002 20.3881 25.3907 20.6753 25.3473 21.631C25.3069 22.515 25.1592 22.9948 25.0351 23.3141C24.8707 23.7372 24.6739 24.0385 24.3566 24.3556C24.0392 24.6729 23.738 24.8694 23.3146 25.0337C22.9954 25.1584 22.5153 25.3057 21.6313 25.3461C20.6755 25.3896 20.3883 25.399 17.9675 25.399C15.5465 25.399 15.2596 25.3896 14.3038 25.3461C13.4198 25.3053 12.94 25.1576 12.6202 25.0335C12.1971 24.8692 11.8949 24.6727 11.5775 24.3554C11.2602 24.0381 11.0638 23.7366 10.899 23.3133C10.7749 22.9941 10.627 22.5143 10.5868 21.6303C10.5434 20.6745 10.5347 20.3874 10.5347 17.9662C10.5347 15.545 10.5434 15.2594 10.5868 14.3036C10.6272 13.4196 10.7749 12.9398 10.899 12.6202C11.0634 12.1971 11.2602 11.8948 11.5775 11.5775C11.8949 11.2602 12.1971 11.0637 12.6202 10.899C12.9398 10.7743 13.4198 10.627 14.3038 10.5864C15.1402 10.5486 15.4643 10.5373 17.1542 10.5354V10.5377ZM22.8073 12.0431C22.2066 12.0431 21.7193 12.5299 21.7193 13.1308C21.7193 13.7314 22.2066 14.2188 22.8073 14.2188C23.408 14.2188 23.8953 13.7314 23.8953 13.1308C23.8953 12.5301 23.408 12.0427 22.8073 12.0427V12.0431ZM13.3114 17.9705C13.3114 15.3992 15.3962 13.3144 17.9675 13.3144H17.9673C20.5387 13.3144 22.6229 15.3992 22.6229 17.9705C22.6229 20.5419 20.5389 22.6257 17.9675 22.6257C15.3962 22.6257 13.3114 20.5419 13.3114 17.9705Z" fill="white"/>
<path d="M17.9676 14.9482C19.6366 14.9482 20.9898 16.3013 20.9898 17.9705C20.9898 19.6395 19.6366 20.9927 17.9676 20.9927C16.2983 20.9927 14.9453 19.6395 14.9453 17.9705C14.9453 16.3013 16.2983 14.9482 17.9676 14.9482Z" fill="white"/>
</svg>
