<svg width="302" height="76" viewBox="0 0 302 76" fill="none" xmlns="http://www.w3.org/2000/svg">
<path d="M4.18945 57.2461V20.7715C4.18945 20.0098 4.46289 19.3555 5.00977 18.8086C5.55664 18.2617 6.23047 17.9883 7.03125 17.9883H12.4805C13.2422 17.9883 13.8867 18.2617 14.4141 18.8086C14.9609 19.3555 15.2344 20.0098 15.2344 20.7715V33.9551H35.3906V20.7715C35.3906 20.0098 35.6641 19.3555 36.2109 18.8086C36.7578 18.2617 37.4121 17.9883 38.1738 17.9883H43.623C44.4238 17.9883 45.0879 18.2617 45.6152 18.8086C46.1621 19.3555 46.4355 20.0098 46.4355 20.7715V57.2461C46.4355 58.0078 46.1523 58.6621 45.5859 59.209C45.0391 59.7363 44.3848 60 43.623 60H38.1738C37.4121 60 36.7578 59.7461 36.2109 59.2383C35.6641 58.7109 35.3906 58.0664 35.3906 57.3047V42.2461H15.2344V57.3047C15.2344 58.0664 14.9609 58.7109 14.4141 59.2383C13.8867 59.7461 13.2422 60 12.4805 60H7.03125C6.26953 60 5.60547 59.7363 5.03906 59.209C4.47266 58.6621 4.18945 58.0078 4.18945 57.2461ZM51.416 57.3047L58.7695 29.4141C60.7617 21.8164 67.2461 18.0078 78.2227 17.9883H94.0137C94.7363 17.9883 95.332 18.2617 95.8008 18.8086C96.2891 19.3555 96.5332 19.9902 96.5332 20.7129V57.3047C96.5332 58.0664 96.2598 58.7109 95.7129 59.2383C95.166 59.7461 94.5117 60 93.75 60H88.2422C87.4414 60 86.7773 59.7461 86.25 59.2383C85.7422 58.7109 85.4883 58.0469 85.4883 57.2461V49.8633H64.6582L62.6953 57.2461C62.5 58.0469 62.0605 58.7109 61.377 59.2383C60.6934 59.7461 59.9707 60 59.209 60H53.4375C52.6758 60 52.1289 59.7852 51.7969 59.3555C51.4648 58.9062 51.2988 58.5156 51.2988 58.1836C51.3184 57.8516 51.3574 57.5586 51.416 57.3047ZM66.8262 41.5723H85.4883V26.2793H77.1387C75.2637 26.2793 73.623 26.8164 72.2168 27.8906C70.8301 28.9453 69.8926 30.3711 69.4043 32.168L66.8262 41.5723ZM104.912 57.3047V20.8301C104.912 20.0293 105.186 19.3555 105.732 18.8086C106.279 18.2617 106.934 17.9883 107.695 17.9883H113.203C113.965 17.9883 114.609 18.2617 115.137 18.8086C115.684 19.3555 115.957 20.0293 115.957 20.8301V51.709H141.475C142.236 51.709 142.881 51.9824 143.408 52.5293C143.955 53.0762 144.229 53.7305 144.229 54.4922V57.2461C144.229 58.0078 143.955 58.6621 143.408 59.209C142.881 59.7363 142.236 60 141.475 60H107.695C106.934 60 106.279 59.7461 105.732 59.2383C105.186 58.7109 104.912 58.0664 104.912 57.3047ZM149.033 57.3047V20.8301C149.033 20.0293 149.307 19.3555 149.854 18.8086C150.4 18.2617 151.055 17.9883 151.816 17.9883H157.324C158.086 17.9883 158.73 18.2617 159.258 18.8086C159.805 19.3555 160.078 20.0293 160.078 20.8301V51.709H185.596C186.357 51.709 187.002 51.9824 187.529 52.5293C188.076 53.0762 188.35 53.7305 188.35 54.4922V57.2461C188.35 58.0078 188.076 58.6621 187.529 59.209C187.002 59.7363 186.357 60 185.596 60H151.816C151.055 60 150.4 59.7461 149.854 59.2383C149.307 58.7109 149.033 58.0664 149.033 57.3047ZM198.926 50.5078C201.562 50.5078 202.881 51.8359 202.881 54.4922V56.3379C202.881 57.5684 202.539 58.5352 201.855 59.2383C201.191 59.9414 200.215 60.293 198.926 60.293H195.322C194.033 60.293 193.047 59.9414 192.363 59.2383C191.699 58.5352 191.367 57.5684 191.367 56.3379V54.4922C191.367 53.2031 191.709 52.2168 192.393 51.5332C193.076 50.8496 194.053 50.5078 195.322 50.5078H198.926ZM252.979 58.7109C252.979 59.5703 252.471 60 251.455 60H244.746C243.984 60 243.164 59.7363 242.285 59.209C241.406 58.6621 240.723 58.0078 240.234 57.2461L235.078 49.0723C233.848 47.0801 232.607 45.5859 231.357 44.5898C230.107 43.5742 228.604 43.0664 226.846 43.0664H220.547V57.3047C220.547 58.0664 220.273 58.7109 219.727 59.2383C219.199 59.7461 218.555 60 217.793 60H212.285C211.523 60 210.869 59.7266 210.322 59.1797C209.775 58.6133 209.502 57.9492 209.502 57.1875V20.7715C209.502 20.0098 209.775 19.3457 210.322 18.7793C210.869 18.2129 211.523 17.9297 212.285 17.9297H217.793C218.555 17.9297 219.199 18.2129 219.727 18.7793C220.273 19.3457 220.547 20.0098 220.547 20.7715V34.8047H226.846C228.564 34.8047 230.068 34.3359 231.357 33.3984C232.666 32.4609 233.906 30.9473 235.078 28.8574L239.619 20.7715C240.654 18.8965 242.061 17.9492 243.838 17.9297H250.605C251.543 17.9297 252.012 18.3398 252.012 19.1602C252.012 19.6094 251.846 20.1465 251.514 20.7715L245.156 32.2852C244.238 33.9648 243.203 35.3516 242.051 36.4453C240.918 37.5391 239.434 38.3105 237.598 38.7598C238.887 39.0332 240.205 39.8438 241.553 41.1914C242.92 42.5391 244.121 44.0039 245.156 45.5859L252.48 57.2461C252.812 57.8125 252.979 58.3008 252.979 58.7109ZM274.043 60.2344C267.559 60.2344 262.578 58.4863 259.102 54.9902C255.645 51.4941 253.916 46.1523 253.916 38.9648C253.916 31.7578 255.723 26.4258 259.336 22.9688C262.969 19.4922 268.408 17.7539 275.654 17.7539H282.188C286.504 17.7539 290.391 18.7891 293.848 20.8594C297.324 22.9102 299.062 25.4785 299.062 28.5645C299.062 29.7168 298.721 30.5469 298.037 31.0547C297.354 31.543 296.689 31.7871 296.045 31.7871H292.559C290.879 31.7871 289.541 30.8301 288.545 28.916C287.549 27.002 285.088 26.0449 281.162 26.0449H275.947C271.67 26.0449 268.77 26.9629 267.246 28.7988C265.723 30.6348 264.961 34.0137 264.961 38.9355C264.961 43.8574 265.645 47.2656 267.012 49.1602C268.379 51.0352 270.82 51.9727 274.336 51.9727H280.342C283.486 51.9727 285.732 51.377 287.08 50.1855C288.428 48.9746 289.121 47.2461 289.16 45H282.539C281.777 45 281.123 44.7363 280.576 44.209C280.049 43.6621 279.785 43.0078 279.785 42.2461V39.9609C279.785 39.1992 280.049 38.5547 280.576 38.0273C281.123 37.4805 281.777 37.207 282.539 37.207H297.246C298.008 37.207 298.652 37.4805 299.18 38.0273C299.727 38.5547 300 39.1992 300 39.9609V43.2129C300 48.6816 298.359 52.8906 295.078 55.8398C291.797 58.7695 286.982 60.2344 280.635 60.2344H274.043Z" fill="url(#paint0_linear_15_29)"/>
<ellipse cx="127" cy="50.5" rx="12" ry="3.5" fill="#088FF0"/>
<ellipse cx="113.546" cy="30.3372" rx="12.3185" ry="4.49422" transform="rotate(90.2397 113.546 30.3372)" fill="url(#paint1_linear_15_29)"/>
<ellipse cx="158.546" cy="30.3372" rx="12.3185" ry="4.49422" transform="rotate(90.2397 158.546 30.3372)" fill="url(#paint2_linear_15_29)"/>
<ellipse cx="171" cy="50.5" rx="12" ry="3.5" fill="#088FF0"/>
<defs>
<linearGradient id="paint0_linear_15_29" x1="151" y1="0" x2="151" y2="76" gradientUnits="userSpaceOnUse">
<stop stop-color="#18CDEA"/>
<stop offset="1" stop-color="#0075F2"/>
</linearGradient>
<linearGradient id="paint1_linear_15_29" x1="125.89" y1="30.2009" x2="101.212" y2="30.2834" gradientUnits="userSpaceOnUse">
<stop offset="0.00520833" stop-color="#0A99EF"/>
<stop offset="1" stop-color="#12B7EC"/>
<stop offset="1" stop-color="#0CA0EE"/>
</linearGradient>
<linearGradient id="paint2_linear_15_29" x1="170.89" y1="30.2009" x2="146.212" y2="30.2834" gradientUnits="userSpaceOnUse">
<stop offset="0.00520833" stop-color="#0A99EF"/>
<stop offset="1" stop-color="#12B7EC"/>
<stop offset="1" stop-color="#0CA0EE"/>
</linearGradient>
</defs>
</svg>
