<svg width="35" height="35" viewBox="0 0 35 35" fill="none" xmlns="http://www.w3.org/2000/svg">
<path fill-rule="evenodd" clip-rule="evenodd" d="M17.5 0.970703C8.11116 0.970703 0.5 8.58186 0.5 17.9707C0.5 27.3595 8.11116 34.9707 17.5 34.9707C26.8888 34.9707 34.5 27.3595 34.5 17.9707C34.5 8.58186 26.8888 0.970703 17.5 0.970703ZM17.0265 15.3768L16.9909 14.7885C16.8838 13.2639 17.8232 11.8713 19.3096 11.3311C19.8566 11.139 20.7841 11.115 21.3906 11.2831C21.6284 11.3551 22.0803 11.5952 22.4013 11.8113L22.984 12.2075L23.6261 12.0034C23.9828 11.8953 24.4585 11.7153 24.6725 11.5952C24.8747 11.4872 25.053 11.4272 25.053 11.4632C25.053 11.6673 24.6131 12.3635 24.2445 12.7477C23.745 13.2879 23.8877 13.3359 24.8985 12.9758C25.5049 12.7717 25.5168 12.7717 25.3979 12.9998C25.3265 13.1198 24.9579 13.54 24.5655 13.9242C23.8996 14.5844 23.8639 14.6565 23.8639 15.2087C23.8639 16.061 23.4596 17.8378 23.0553 18.8101C22.3062 20.6349 20.7009 22.5196 19.0956 23.468C16.8363 24.8006 13.8278 25.1367 11.295 24.3564C10.4507 24.0923 9 23.42 9 23.3C9 23.2639 9.43997 23.2159 9.97507 23.2039C11.0928 23.1799 12.2106 22.8678 13.1619 22.3156L13.804 21.9314L13.0668 21.6793C12.0204 21.3192 11.081 20.4908 10.8431 19.7105C10.7718 19.4584 10.7956 19.4464 11.4615 19.4464L12.1512 19.4344L11.5685 19.1583C10.8788 18.8101 10.2486 18.2219 9.9394 17.6217C9.71347 17.1895 9.42808 16.097 9.51132 16.013C9.5351 15.977 9.78482 16.049 10.0702 16.1451C10.8907 16.4452 10.9977 16.3732 10.5221 15.869C9.63023 14.9566 9.35673 13.6 9.78482 12.3155L9.98697 11.7393L10.7718 12.5196C12.3771 14.0922 14.2678 15.0286 16.432 15.3047L17.0265 15.3768Z" fill="white"/>
</svg>
